# xmcd CD database file
#
# Track frame offsets:
#	150
#	21784
#	53141
#	83552
#	108489
#	122749
#	148143
#	180670
#
# Disc length: 2724 seconds
#
# Revision: 0
# Processed by: cddbd v1.5.2PL0 Copyright (c) Steve Scherf et al.
# Submitted via: CDex 1.51
#
DISCID=660aa208
DTITLE=Medwyn Goodall - The Way of the Dolphin
DYEAR=1992
DGENRE=New Age
TTITLE0=Face to Face
TTITLE1=Odyssey
TTITLE2=Shared Worlds
TTITLE3=Whale Requiem
TTITLE4=Reverberations
TTITLE5=Dolphin Dreams
TTITLE6=Tears of the Deep
TTITLE7=Undersea Oasis
EXTD=YEAR: 1992
EXTT0=
EXTT1=
EXTT2=
EXTT3=
EXTT4=
EXTT5=
EXTT6=
EXTT7=
PLAYORDER=
